<svg xmlns="http://www.w3.org/2000/svg" width="455" height="223" viewBox="0 0 455 223" fill="none">
  <path d="M1 18C1 13.7291 1.00212 10.6265 1.32059 8.2578C1.63518 5.91786 2.2419 4.4444 3.34315 3.34315C4.44454 2.24175 5.91715 1.63513 8.25482 1.32057C10.6214 1.00213 13.7208 1 17.9876 1H18.2235H18.4608H18.6993H18.9393H19.1805H19.4231H19.667H19.9122H20.1587H20.4065H20.6557H20.9061H21.1578H21.4109H21.6652H21.9208H22.1777H22.4359H22.6953H22.956H23.218H23.4813H23.7458H24.0115H24.2785H24.5468H24.8163H25.087H25.359H25.6322H25.9067H26.1823H26.4592H26.7373H27.0166H27.2972H27.5789H27.8618H28.1459H28.4312H28.7178H29.0054H29.2943H29.5844H29.8756H30.168H30.4615H30.7563H31.0521H31.3492H31.6474H31.9467H32.2472H32.5488H32.8515H33.1554H33.4604H33.7665H34.0737H34.3821H34.6916H35.0021H35.3138H35.6266H35.9405H36.2554H36.5715H36.8886H37.2068H37.5261H37.8465H38.1679H38.4904H38.814H39.1386H39.4643H39.791H40.1187H40.4475H40.7774H41.1083H41.4402H41.7731H42.107H42.442H42.778H43.115H43.453H43.792H44.1319H44.4729H44.8149H45.1579H45.5018H45.8467H46.1926H46.5395H46.8874H47.2362H47.5859H47.9366H48.2883H48.6409H48.9945H49.349H49.7044H50.0608H50.418H50.7763H51.1354H51.4954H51.8564H52.2183H52.5811H52.9447H53.3093H53.6748H54.0411H54.4084H54.7765H55.1455H55.5154H55.8861H56.2577H56.6302H57.0035H57.3777H57.7527H58.1286H58.5053H58.8829H59.2612H59.6405H60.0205H60.4014H60.7831H61.1656H61.5489H61.933H62.3179H62.7036H63.0902H63.4775H63.8656H64.2544H64.6441H65.0345H65.4258H65.8177H66.2105H66.604H66.9982H67.3932H67.789H68.1855H68.5827H68.9807H69.3794H69.7789H70.179H70.5799H70.9815H71.3838H71.7869H72.1906H72.595H73.0002H73.406H73.8125H74.2197H74.6276H75.0361H75.4454H75.8553H76.2659H76.6771H77.089H77.5015H77.9147H78.3286H78.7431H79.1582H79.574H79.9904H80.4074H80.8251H81.2433H81.6622H82.0817H82.5018H82.9225H83.3438H83.7657H84.1882H84.6113H85.035H85.4592H85.8841H86.3095H86.7354H87.162H87.5891H88.0167H88.4449H88.8737H89.303H89.7328H90.1632H90.5941H91.0256H91.4576H91.8901H92.3231H92.7566H93.1907H93.6252H94.0602H94.4958H94.9318H95.3684H95.8054H96.2429H96.6809H97.1193H97.5583H97.9977H98.4375H98.8779H99.3186H99.7599H100.202H100.644H101.086H101.529H101.973H102.417H102.861H103.306H103.751H104.196H104.642H105.089H105.535H105.982H106.43H106.878H107.326H107.775H108.224H108.673H109.123H109.573H110.024H110.475H110.926H111.378H111.83H112.282H112.735H113.188H113.641H114.095H114.549H115.003H115.458H115.912H116.368H116.823H117.279H117.735H118.192H118.648H119.105H119.562H120.02H120.478H120.936H121.394H121.853H122.312H122.771H123.23H123.69H124.15H124.61H125.07H125.531H125.991H126.452H126.914H127.375H127.837H128.299H128.761H129.223H129.685H130.148H130.611H131.074H131.537H132H132.464H132.928H133.392H133.856H134.32H134.784H135.249H135.713H136.178H136.643H137.108H137.573H138.038H138.504H138.969H139.435H139.901H140.367H140.833H141.299H141.765H142.231H142.697H143.164H143.63H144.097H144.563H145.03H145.497H145.964H146.431H146.897H147.364H147.831H148.298H148.766H149.233H149.7H150.167H150.634H151.101H151.569H152.036H152.503H152.97H153.437H153.905H154.372H154.839H155.306H155.773H156.24H156.707H157.175H157.642H158.109H158.575H159.042H159.509H159.976H160.443H160.909H161.376H161.842H162.309H162.775H163.241H163.707H164.173H164.639H165.105H165.571H166.036H166.502H166.967H167.433H167.898H168.363H168.828H169.293H169.757H170.222H170.686H171.15H171.614H172.078H172.542H173.005H173.469H173.932H174.395H174.858H175.32H175.783H176.245H176.707H177.169H177.63H178.092H178.553H179.014H179.475H179.935H180.396H180.856H181.315H181.775H182.234H182.694H183.152H183.611H184.069H184.527H184.985H185.443H185.9H186.357H186.814H187.27H187.726H188.182H188.637H189.093H189.547H190.002H190.456H190.91H191.364H191.817H192.27H192.723H193.175H193.627H194.078H194.53H194.981H195.431H195.881H196.331H196.781H197.23H197.678H198.127H198.574H199.022H199.469H199.916H200.362H200.808H201.254H201.699H202.143H202.588H203.031H203.475H203.918H204.36H204.802H205.244H205.685H206.126H206.566H207.006H207.445H207.884H208.323H208.761H209.198H209.635H210.072H210.508H210.943H211.378H211.813H212.247H212.68H213.113H213.546H213.977H214.409H214.84H215.27H215.7H216.129H216.558H216.986H217.414H217.841H218.267H218.693H219.118H219.543H219.967H220.391H220.814H221.237H221.658H222.08H222.5H222.92H223.34H223.759H224.177H224.594H225.011H225.428H225.844H226.259H226.673H227.087H227.5H227.913H228.327H228.741H229.156H229.572H229.989H230.406H230.823H231.241H231.66H232.08H232.5H232.92H233.342H233.763H234.186H234.609H235.033H235.457H235.882H236.307H236.733H237.159H237.586H238.014H238.442H238.871H239.3H239.73H240.16H240.591H241.023H241.454H241.887H242.32H242.753H243.187H243.622H244.057H244.492H244.928H245.365H245.802H246.239H246.677H247.116H247.555H247.994H248.434H248.874H249.315H249.756H250.198H250.64H251.082H251.525H251.969H252.412H252.857H253.301H253.746H254.192H254.638H255.084H255.531H255.978H256.426H256.873H257.322H257.77H258.219H258.669H259.119H259.569H260.019H260.47H260.922H261.373H261.825H262.277H262.73H263.183H263.636H264.09H264.544H264.998H265.453H265.907H266.363H266.818H267.274H267.73H268.186H268.643H269.1H269.557H270.015H270.473H270.931H271.389H271.848H272.306H272.766H273.225H273.685H274.144H274.604H275.065H275.525H275.986H276.447H276.908H277.37H277.831H278.293H278.755H279.217H279.68H280.142H280.605H281.068H281.531H281.995H282.458H282.922H283.386H283.85H284.314H284.778H285.243H285.707H286.172H286.637H287.102H287.567H288.033H288.498H288.964H289.429H289.895H290.361H290.827H291.293H291.759H292.225H292.691H293.158H293.624H294.091H294.557H295.024H295.491H295.958H296.425H296.892H297.358H297.825H298.293H298.76H299.227H299.694H300.161H300.628H301.095H301.563H302.03H302.497H302.964H303.431H303.899H304.366H304.833H305.3H305.767H306.234H306.702H307.169H307.636H308.103H308.569H309.036H309.503H309.97H310.437H310.903H311.37H311.836H312.303H312.769H313.235H313.701H314.167H314.633H315.099H315.565H316.031H316.496H316.962H317.427H317.892H318.357H318.822H319.287H319.751H320.216H320.68H321.144H321.608H322.072H322.536H323H323.463H323.926H324.389H324.852H325.315H325.777H326.239H326.701H327.163H327.625H328.086H328.548H329.009H329.469H329.93H330.39H330.85H331.31H331.77H332.229H332.688H333.147H333.606H334.064H334.522H334.98H335.438H335.895H336.352H336.808H337.265H337.721H338.177H338.632H339.088H339.542H339.997H340.451H340.905H341.359H341.812H342.265H342.718H343.17H343.622H344.074H344.525H344.976H345.427H345.877H346.327H346.776H347.225H347.674H348.122H348.57H349.018H349.465H349.911H350.358H350.804H351.249H351.694H352.139H352.583H353.027H353.471H353.914H354.356H354.798H355.24H355.681H356.122H356.562H357.002H357.442H357.881H358.319H358.757H359.195H359.632H360.068H360.504H360.94H361.375H361.809H362.243H362.677H363.11H363.542H363.974H364.406H364.837H365.267H365.697H366.126H366.555H366.983H367.411H367.838H368.265H368.691H369.116H369.541H369.965H370.389H370.812H371.234H371.656H372.078H372.498H372.918H373.338H373.757H374.175H374.593H375.01H375.426H375.842H376.257H376.671H377.085H377.498H377.911H378.323H378.734H379.145H379.555H379.964H380.372H380.78H381.188H381.594H382H382.405H382.809H383.213H383.616H384.018H384.42H384.821H385.221H385.621H386.019H386.417H386.815H387.211H387.607H388.002H388.396H388.79H389.182H389.574H389.965H390.356H390.746H391.134H391.523H391.91H392.296H392.682H393.067H393.451H393.834H394.217H394.599H394.979H395.36H395.739H396.117H396.495H396.871H397.247H397.622H397.997H398.37H398.742H399.114H399.485H399.855H400.224H400.592H400.959H401.325H401.691H402.055H402.419H402.782H403.144H403.505H403.865H404.224H404.582H404.939H405.296H405.651H406.006H406.359H406.712H407.063H407.414H407.764H408.113H408.461H408.807H409.153H409.498H409.842H410.185H410.527H410.868H411.208H411.547H411.885H412.222H412.558H412.893H413.227H413.56H413.892H414.223H414.552H414.881H415.209H415.536H415.861H416.186H416.51H416.832H417.154H417.474H417.793H418.111H418.429H418.745H419.06H419.373H419.686H419.998H420.308H420.618H420.926H421.234H421.54H421.845H422.149H422.451H422.753H423.053H423.353H423.651H423.948H424.244H424.538H424.832H425.124H425.416H425.706H425.995H426.282H426.569H426.854H427.138H427.421H427.703H427.983H428.263H428.541H428.818H429.093H429.368H429.641H429.913H430.184H430.453H430.721H430.988H431.254H431.519H431.782H432.044H432.305H432.564H432.822H433.079H433.335H433.589H433.842H434.094H434.344H434.594H434.841H435.088H435.333H435.577H435.82H436.061H436.301H436.539H436.776H437.012C441.279 1 444.379 1.00213 446.745 1.32057C449.083 1.63513 450.555 2.24175 451.657 3.34315C452.758 4.4444 453.365 5.91787 453.679 8.2578C453.998 10.6265 454 13.7291 454 18V205C454 209.271 453.998 212.374 453.679 214.742C453.365 217.082 452.758 218.556 451.657 219.657C450.556 220.758 449.082 221.365 446.742 221.679C444.374 221.998 441.271 222 437 222H18C13.7291 222 10.6265 221.998 8.2578 221.679C5.91787 221.365 4.4444 220.758 3.34315 219.657C2.2419 218.556 1.63518 217.082 1.32059 214.742C1.00212 212.374 1 209.271 1 205V18Z" fill="white" stroke="url(#paint0_linear_134_40)" stroke-width="2"/>
  <defs>
    <linearGradient id="paint0_linear_134_40" x1="227.5" y1="0" x2="227.5" y2="223" gradientUnits="userSpaceOnUse">
      <stop stop-color="#EDEDED"/>
      <stop offset="1" stop-color="#EDEDED" stop-opacity="0"/>
    </linearGradient>
  </defs>
</svg>