<svg xmlns="http://www.w3.org/2000/svg" width="173" height="321" viewBox="0 0 173 321" >
  <path d="M172 18V303C172 307.271 171.998 310.374 171.679 312.742C171.365 315.082 170.758 316.556 169.657 317.657C168.556 318.758 167.082 319.365 164.742 319.679C162.373 319.998 159.271 320 155 320H18C13.7291 320 10.6265 319.998 8.2578 319.679C5.91786 319.365 4.4444 318.758 3.34315 317.657C2.2419 316.556 1.63518 315.082 1.32059 312.742C1.00212 310.374 1 307.271 1 303V18C1 13.7291 1.00212 10.6265 1.32059 8.2578C1.63518 5.91786 2.2419 4.4444 3.34315 3.34315C4.44449 2.2418 5.9174 1.63515 8.25585 1.32058C10.6232 1.00213 13.7237 1 17.9919 1H18.0992H18.2067H18.3144H18.4223H18.5305H18.639H18.7476H18.8565H18.9656H19.075H19.1845H19.2943H19.4044H19.5146H19.6251H19.7358H19.8468H19.9579H20.0693H20.1809H20.2927H20.4048H20.517H20.6295H20.7422H20.8551H20.9683H21.0816H21.1952H21.309H21.4229H21.5372H21.6516H21.7662H21.881H21.9961H22.1113H22.2268H22.3425H22.4584H22.5744H22.6907H22.8072H22.9239H23.0408H23.1579H23.2752H23.3927H23.5104H23.6283H23.7464H23.8647H23.9832H24.1019H24.2208H24.3399H24.4591H24.5786H24.6982H24.8181H24.9381H25.0583H25.1788H25.2994H25.4202H25.5411H25.6623H25.7836H25.9052H26.0269H26.1488H26.2708H26.3931H26.5155H26.6381H26.7609H26.8839H27.0071H27.1304H27.2539H27.3776H27.5014H27.6254H27.7496H27.874H27.9985H28.1232H28.2481H28.3731H28.4984H28.6237H28.7493H28.875H29.0009H29.1269H29.2531H29.3795H29.506H29.6327H29.7595H29.8865H30.0137H30.141H30.2685H30.3961H30.5239H30.6518H30.7799H30.9082H31.0366H31.1651H31.2938H31.4227H31.5517H31.6808H31.8101H31.9396H32.0692H32.1989H32.3288H32.4588H32.589H32.7193H32.8497H32.9803H33.111H33.2419H33.3729H33.5041H33.6353H33.7668H33.8983H34.03H34.1618H34.2938H34.4258H34.5581H34.6904H34.8229H34.9555H35.0882H35.2211H35.354H35.4872H35.6204H35.7537H35.8872H36.0208H36.1546H36.2884H36.4224H36.5565H36.6907H36.825H36.9594H37.094H37.2287H37.3634H37.4983H37.6334H37.7685H37.9037H38.0391H38.1745H38.3101H38.4458H38.5816H38.7175H38.8535H38.9896H39.1258H39.2621H39.3985H39.535H39.6716H39.8084H39.9452H40.0821H40.2191H40.3562H40.4935H40.6308H40.7682H40.9057H41.0433H41.181H41.3187H41.4566H41.5946H41.7326H41.8708H42.009H42.1473H42.2857H42.4242H42.5628H42.7014H42.8402H42.979H43.1179H43.2569H43.396H43.5351H43.6743H43.8136H43.953H44.0925H44.232H44.3716H44.5113H44.6511H44.7909H44.9308H45.0708H45.2108H45.351H45.4911H45.6314H45.7717H45.9121H46.0526H46.1931H46.3337H46.4743H46.615H46.7558H46.8966H47.0375H47.1785H47.3195H47.4606H47.6017H47.7429H47.8841H48.0254H48.1668H48.3082H48.4496H48.5911H48.7327H48.8743H49.0159H49.1576H49.2994H49.4412H49.583H49.7249H49.8669H50.0089H50.1509H50.293H50.4351H50.5772H50.7194H50.8616H51.0039H51.1462H51.2886H51.431H51.5734H51.7158H51.8583H52.0008H52.1434H52.286H52.4286H52.5712H52.7139H52.8566H52.9993H53.1421H53.2849H53.4277H53.5705H53.7134H53.8562H53.9991H54.1421H54.285H54.428H54.571H54.714H54.857H55H55.1431H55.2862H55.4292H55.5723H55.7154H55.8586H56.0017H56.1448H56.288H56.4312H56.5743H56.7175H56.8607H57.0039H57.1471H57.2903H57.4335H57.5767H57.7199H57.8631H58.0064H58.1496H58.2928H58.436H58.5792H58.7224H58.8656H59.0088H59.152H59.2952H59.4384H59.5815H59.7247H59.8678H60.011H60.1541H60.2972H60.4403H60.5834H60.7265H60.8696H61.0126H61.1556H61.2987H61.4417H61.5846H61.7276H61.8705H62.0134H62.1563H62.2992H62.4421H62.5849H62.7277H62.8704H63.0132H63.1559H63.2986H63.4413H63.5839H63.7265H63.8691H64.0116H64.1541H64.2966H64.439H64.5814H64.7238H64.8661H65.0084H65.1507H65.2929H65.4351H65.5772H65.7193H65.8613H66.0033H66.1453H66.2872H66.4291H66.5709H66.7127H66.8545H66.9961H67.1378H67.2794H67.4209H67.5624H67.7038H67.8452H67.9865H68.1278H68.269H68.4102H68.5513H68.6923H68.8333H68.9743H69.1151H69.2559H69.3967H69.5374H69.678H69.8185H69.959H70.0995H70.2398H70.3801H70.5203H70.6605H70.8006H70.9406H71.0806H71.2204H71.3602H71.5H71.6396H71.7792H71.9187H72.0581H72.1975H72.3368H72.476H72.6151H72.7541H72.8931H73.032H73.1708H73.3095H73.4481H73.5866H73.7251H73.8634H74.0017H74.1399H74.278H74.416H74.554H74.6918H74.8295H74.9672H75.1047H75.2422H75.3796H75.5168H75.654H75.7911H75.9281H76.0649H76.2017H76.3384H76.475H76.6115H76.7478H76.8841H77.0203H77.1563H77.2923H77.4281H77.5639H77.6995H77.8351H77.9705H78.1058H78.241H78.376H78.511H78.6459H78.7806H78.9152H79.0498H79.1841H79.3184H79.4526H79.5866H79.7205H79.8543H79.988H80.1216H80.255H80.3883H80.5215H80.6545H80.7875H80.9203H81.053H81.1855H81.3179H81.4502H81.5824H81.7144H81.8463H81.9781H82.1097H82.2412H82.3726H82.5038H82.6349H82.7658H82.8966H83.0273H83.1578H83.2882H83.4185H83.5486H83.6786H83.8084H83.938H84.0676H84.197H84.3262H84.4553H84.5842H84.713H84.8417H84.9702H85.0985H85.2267H85.3547H85.4826H85.6103H85.7379H85.8653H85.9926H86.1197H86.2466H86.3734H86.5H86.6266H86.7534H86.8803H87.0074H87.1347H87.2621H87.3897H87.5174H87.6453H87.7733H87.9015H88.0298H88.1583H88.287H88.4158H88.5447H88.6738H88.803H88.9324H89.0619H89.1916H89.3214H89.4514H89.5815H89.7118H89.8422H89.9727H90.1034H90.2342H90.3651H90.4962H90.6274H90.7588H90.8903H91.0219H91.1537H91.2856H91.4176H91.5498H91.6821H91.8145H91.947H92.0797H92.2125H92.3454H92.4785H92.6117H92.745H92.8784H93.012H93.1457H93.2795H93.4134H93.5474H93.6816H93.8158H93.9502H94.0848H94.2194H94.3541H94.489H94.6239H94.759H94.8942H95.0295H95.1649H95.3005H95.4361H95.5718H95.7077H95.8437H95.9797H96.1159H96.2521H96.3885H96.525H96.6616H96.7983H96.935H97.0719H97.2089H97.346H97.4831H97.6204H97.7578H97.8952H98.0328H98.1705H98.3082H98.446H98.584H98.722H98.8601H98.9983H99.1365H99.2749H99.4134H99.5519H99.6905H99.8292H99.968H100.107H100.246H100.385H100.524H100.663H100.802H100.942H101.081H101.221H101.36H101.5H101.64H101.78H101.919H102.059H102.199H102.339H102.48H102.62H102.76H102.901H103.041H103.181H103.322H103.463H103.603H103.744H103.885H104.026H104.167H104.308H104.449H104.59H104.731H104.872H105.013H105.155H105.296H105.438H105.579H105.721H105.862H106.004H106.146H106.287H106.429H106.571H106.713H106.855H106.997H107.139H107.281H107.423H107.565H107.707H107.849H107.992H108.134H108.276H108.419H108.561H108.703H108.846H108.988H109.131H109.273H109.416H109.559H109.701H109.844H109.987H110.13H110.272H110.415H110.558H110.701H110.844H110.987H111.129H111.272H111.415H111.558H111.701H111.844H111.987H112.13H112.273H112.417H112.56H112.703H112.846H112.989H113.132H113.275H113.418H113.562H113.705H113.848H113.991H114.134H114.278H114.421H114.564H114.707H114.85H114.994H115.137H115.28H115.423H115.566H115.71H115.853H115.996H116.139H116.282H116.426H116.569H116.712H116.855H116.998H117.141H117.285H117.428H117.571H117.714H117.857H118H118.143H118.286H118.429H118.572H118.715H118.858H119.001H119.144H119.287H119.429H119.572H119.715H119.858H120.001H120.143H120.286H120.429H120.571H120.714H120.857H120.999H121.142H121.284H121.427H121.569H121.711H121.854H121.996H122.138H122.281H122.423H122.565H122.707H122.849H122.991H123.133H123.275H123.417H123.559H123.701H123.842H123.984H124.126H124.267H124.409H124.55H124.692H124.833H124.975H125.116H125.257H125.398H125.539H125.68H125.822H125.962H126.103H126.244H126.385H126.526H126.666H126.807H126.947H127.088H127.228H127.369H127.509H127.649H127.789H127.929H128.069H128.209H128.349H128.489H128.628H128.768H128.908H129.047H129.186H129.326H129.465H129.604H129.743H129.882H130.021H130.16H130.299H130.437H130.576H130.714H130.853H130.991H131.129H131.267H131.405H131.543H131.681H131.819H131.957H132.094H132.232H132.369H132.507H132.644H132.781H132.918H133.055H133.192H133.328H133.465H133.601H133.738H133.874H134.01H134.147H134.283H134.418H134.554H134.69H134.825H134.961H135.096H135.231H135.367H135.502H135.637H135.771H135.906H136.041H136.175H136.309H136.444H136.578H136.712H136.845H136.979H137.113H137.246H137.38H137.513H137.646H137.779H137.912H138.045H138.177H138.31H138.442H138.574H138.706H138.838H138.97H139.102H139.233H139.365H139.496H139.627H139.758H139.889H140.02H140.15H140.281H140.411H140.541H140.671H140.801H140.931H141.06H141.19H141.319H141.448H141.577H141.706H141.835H141.963H142.092H142.22H142.348H142.476H142.604H142.732H142.859H142.986H143.113H143.24H143.367H143.494H143.621H143.747H143.873H143.999H144.125H144.251H144.376H144.502H144.627H144.752H144.877H145.001H145.126H145.25H145.375H145.499H145.622H145.746H145.87H145.993H146.116H146.239H146.362H146.484H146.607H146.729H146.851H146.973H147.095H147.216H147.338H147.459H147.58H147.701H147.821H147.942H148.062H148.182H148.302H148.421H148.541H148.66H148.779H148.898H149.017H149.135H149.254H149.372H149.49H149.607H149.725H149.842H149.959H150.076H150.193H150.309H150.426H150.542H150.658H150.773H150.889H151.004H151.119H151.234H151.348H151.463H151.577H151.691H151.805H151.918H152.032H152.145H152.258H152.37H152.483H152.595H152.707H152.819H152.931H153.042H153.153H153.264H153.375H153.485H153.596H153.706H153.815H153.925H154.034H154.143H154.252H154.361H154.469H154.578H154.686H154.793H154.901H155.008C159.276 1 162.377 1.00213 164.744 1.32058C167.083 1.63515 168.555 2.2418 169.657 3.34315C170.758 4.4444 171.365 5.91786 171.679 8.2578C171.998 10.6265 172 13.7291 172 18Z" fill="white" stroke="url(#paint0_linear_134_41)" stroke-width="2"/>
  <defs>
    <linearGradient id="paint0_linear_134_41" x1="86.5" y1="0" x2="86.5" y2="321" gradientUnits="userSpaceOnUse">
      <stop stop-color="#EDEDED"/>
      <stop offset="1" stop-color="#EDEDED" stop-opacity="0"/>
    </linearGradient>
  </defs>
</svg>