<svg xmlns="http://www.w3.org/2000/svg" width="68" height="57" viewBox="0 0 68 57" fill="none">
  <g filter="url(#filter0_d_17_8853)">
    <path d="M62.9 32.3655H61.2V29.132C61.2 26.5593 60.1254 24.0919 58.2125 22.2727C56.2996 20.4536 53.7052 19.4315 51 19.4315H37.4V12.0676C38.6964 11.3558 39.7095 10.257 40.2824 8.9418C40.8552 7.62656 40.9557 6.16831 40.5683 4.79321C40.1809 3.41811 39.3272 2.20302 38.1396 1.33638C36.952 0.469746 35.4969 0 34 0C32.5031 0 31.048 0.469746 29.8604 1.33638C28.6728 2.20302 27.8191 3.41811 27.4317 4.79321C27.0443 6.16831 27.1448 7.62656 27.7176 8.9418C28.2905 10.257 29.3036 11.3558 30.6 12.0676V19.4315H17C14.2948 19.4315 11.7004 20.4536 9.78751 22.2727C7.87464 24.0919 6.8 26.5593 6.8 29.132V32.3655H5.1C3.7474 32.3655 2.45019 32.8765 1.49376 33.7861C0.53732 34.6957 0 35.9294 0 37.2158C0 38.5021 0.53732 39.7358 1.49376 40.6454C2.45019 41.555 3.7474 42.066 5.1 42.066H6.8V45.2995C6.8 47.8722 7.87464 50.3396 9.78751 52.1588C11.7004 53.978 14.2948 55 17 55H51C53.7052 55 56.2996 53.978 58.2125 52.1588C60.1254 50.3396 61.2 47.8722 61.2 45.2995V42.066H62.9C64.2526 42.066 65.5498 41.555 66.5062 40.6454C67.4627 39.7358 68 38.5021 68 37.2158C68 35.9294 67.4627 34.6957 66.5062 33.7861C65.5498 32.8765 64.2526 32.3655 62.9 32.3655ZM27.2 37.2158C27.2 38.1751 26.9009 39.1128 26.3405 39.9104C25.7801 40.708 24.9836 41.3297 24.0517 41.6968C23.1198 42.0639 22.0943 42.16 21.105 41.9728C20.1157 41.7857 19.207 41.3237 18.4938 40.6454C17.7805 39.9671 17.2948 39.1029 17.098 38.162C16.9012 37.2211 17.0022 36.2459 17.3882 35.3597C17.7742 34.4734 18.4279 33.7159 19.2666 33.1829C20.1053 32.65 21.0913 32.3655 22.1 32.3655C23.4526 32.3655 24.7498 32.8765 25.7062 33.7861C26.6627 34.6957 27.2 35.9294 27.2 37.2158ZM51 37.2158C51 38.1751 50.7009 39.1128 50.1405 39.9104C49.5801 40.708 48.7836 41.3297 47.8517 41.6968C46.9198 42.0639 45.8943 42.16 44.905 41.9728C43.9157 41.7857 43.007 41.3237 42.2938 40.6454C41.5805 39.9671 41.0948 39.1029 40.898 38.162C40.7012 37.2211 40.8022 36.2459 41.1882 35.3597C41.5742 34.4734 42.2279 33.7159 43.0666 33.1829C43.9053 32.65 44.8913 32.3655 45.9 32.3655C47.2526 32.3655 48.5498 32.8765 49.5062 33.7861C50.4627 34.6957 51 35.9294 51 37.2158Z" fill="#576DDB"/>
  </g>
  <defs>
    <filter id="filter0_d_17_8853" x="0" y="0" width="68" height="57" filterUnits="userSpaceOnUse" color-interpolation-filters="sRGB">
      <feFlood flood-opacity="0" result="BackgroundImageFix"/>
      <feColorMatrix in="SourceAlpha" type="matrix" values="0 0 0 0 0 0 0 0 0 0 0 0 0 0 0 0 0 0 127 0" result="hardAlpha"/>
      <feOffset dy="2"/>
      <feComposite in2="hardAlpha" operator="out"/>
      <feColorMatrix type="matrix" values="0 0 0 0 1 0 0 0 0 1 0 0 0 0 1 0 0 0 1 0"/>
      <feBlend mode="normal" in2="BackgroundImageFix" result="effect1_dropShadow_17_8853"/>
      <feBlend mode="normal" in="SourceGraphic" in2="effect1_dropShadow_17_8853" result="shape"/>
    </filter>
  </defs>
</svg>