<svg xmlns="http://www.w3.org/2000/svg" width="15" height="15" viewBox="0 0 15 15" fill="none">
  <path fill-rule="evenodd" clip-rule="evenodd" d="M1.06042 0.717416C0.474629 1.3032 0.474629 2.25295 1.06042 2.83874L5.65651 7.43483L1.06019 12.0312C0.474403 12.6169 0.474403 13.5667 1.06019 14.1525C1.64598 14.7383 2.59572 14.7383 3.18151 14.1525L7.77783 9.55615L12.3741 14.1524C12.9599 14.7382 13.9097 14.7382 14.4954 14.1524C15.0812 13.5667 15.0812 12.6169 14.4954 12.0311L9.89915 7.43483L14.4952 2.83877C15.081 2.25298 15.081 1.30323 14.4952 0.717446C13.9094 0.131659 12.9597 0.13166 12.3739 0.717446L7.77783 5.31351L3.18174 0.717416C2.59595 0.13163 1.6462 0.13163 1.06042 0.717416Z" fill="#D2D7E5"/>
</svg>