<!-- <svg xmlns="http://www.w3.org/2000/svg" width="732" height="483" viewBox="0 0 732 483" fill="none">
  <mask id="path-1-inside-1_53_1021" fill="white">
    <path fill-rule="evenodd" clip-rule="evenodd" d="M392.47 6.50583C401.847 11.4314 406.535 13.8942 408.777 14.4471C411.018 15 413.79 15 419.334 15H696.036C712.983 15 721.456 15 726.728 20.2721C732 25.5442 732 34.0294 732 51V447C732 463.971 732 472.456 726.728 477.728C721.456 483 712.971 483 696 483H36C19.0294 483 10.5442 483 5.27208 477.728C0 472.456 0 463.971 0 447V51C0 34.0294 0 25.5442 5.27208 20.2721C10.5442 15 19.0173 15 35.9635 15H312.666C318.21 15 320.982 15 323.223 14.4471C325.465 13.8942 330.153 11.4314 339.53 6.50583C347.44 2.3509 356.445 0 366 0C375.555 0 384.56 2.3509 392.47 6.50583Z"/>
  </mask>
  <path fill-rule="evenodd" clip-rule="evenodd" d="M392.47 6.50583C401.847 11.4314 406.535 13.8942 408.777 14.4471C411.018 15 413.79 15 419.334 15H696.036C712.983 15 721.456 15 726.728 20.2721C732 25.5442 732 34.0294 732 51V447C732 463.971 732 472.456 726.728 477.728C721.456 483 712.971 483 696 483H36C19.0294 483 10.5442 483 5.27208 477.728C0 472.456 0 463.971 0 447V51C0 34.0294 0 25.5442 5.27208 20.2721C10.5442 15 19.0173 15 35.9635 15H312.666C318.21 15 320.982 15 323.223 14.4471C325.465 13.8942 330.153 11.4314 339.53 6.50583C347.44 2.3509 356.445 0 366 0C375.555 0 384.56 2.3509 392.47 6.50583Z" fill="white"/>
  <path d="M726.728 20.2721L726.021 20.9792L726.021 20.9792L726.728 20.2721ZM726.728 477.728L726.021 477.021L726.021 477.021L726.728 477.728ZM5.27208 477.728L5.97919 477.021L5.97918 477.021L5.27208 477.728ZM339.53 6.50583L339.065 5.62054L339.53 6.50583ZM323.223 14.4471L322.984 13.4762L323.223 14.4471ZM392.47 6.50583L392.005 7.39111L392.47 6.50583ZM408.777 14.4471L408.537 15.418L408.777 14.4471ZM419.334 16H696.036V14H419.334V16ZM696.036 16C704.538 16 710.813 16.0021 715.627 16.6501C720.411 17.2941 723.601 18.5597 726.021 20.9792L727.435 19.565C724.582 16.7124 720.9 15.3419 715.893 14.6679C710.916 13.9979 704.481 14 696.036 14V16ZM726.021 20.9792C728.44 23.3985 729.706 26.5916 730.35 31.3824C730.998 36.2019 731 42.4864 731 51H733C733 42.543 733.002 36.0996 732.332 31.1159C731.658 26.1033 730.288 22.4178 727.435 19.565L726.021 20.9792ZM731 51V447H733V51H731ZM731 447C731 455.514 730.998 461.798 730.35 466.618C729.706 471.408 728.44 474.602 726.021 477.021L727.435 478.435C730.288 475.582 731.658 471.897 732.332 466.884C733.002 461.9 733 455.457 733 447H731ZM726.021 477.021C723.602 479.44 720.408 480.706 715.618 481.35C710.798 481.998 704.514 482 696 482V484C704.457 484 710.9 484.002 715.884 483.332C720.897 482.658 724.582 481.288 727.435 478.435L726.021 477.021ZM696 482H36V484H696V482ZM36 482C27.4864 482 21.2019 481.998 16.3824 481.35C11.5916 480.706 8.39846 479.44 5.97919 477.021L4.56497 478.435C7.41778 481.288 11.1033 482.658 16.1159 483.332C21.0996 484.002 27.543 484 36 484V482ZM5.97918 477.021C3.55991 474.602 2.29419 471.408 1.65009 466.618C1.00212 461.798 1 455.514 1 447H-1C-1 455.457 -1.00212 461.9 -0.332073 466.884C0.341845 471.897 1.71216 475.582 4.56497 478.435L5.97918 477.021ZM1 447V51H-1V447H1ZM1 51C1 42.4864 1.00212 36.2019 1.65009 31.3824C2.29419 26.5916 3.55991 23.3985 5.97918 20.9792L4.56497 19.565C1.71216 22.4178 0.341845 26.1033 -0.332073 31.1159C-1.00212 36.0996 -1 42.543 -1 51H1ZM5.97918 20.9792C8.39867 18.5597 11.589 17.2941 16.3734 16.6501C21.1867 16.0021 27.4621 16 35.9635 16V14C27.5187 14 21.0844 13.9979 16.1066 14.6679C11.0998 15.3419 7.41757 16.7124 4.56497 19.565L5.97918 20.9792ZM35.9635 16H312.666V14H35.9635V16ZM339.995 7.39111C347.765 3.30973 356.611 1 366 1V-1C356.279 -1 347.115 1.39208 339.065 5.62054L339.995 7.39111ZM366 1C375.389 1 384.235 3.30973 392.005 7.39111L392.935 5.62054C384.885 1.39208 375.721 -1 366 -1V1ZM312.666 16C318.149 16 321.073 16.0074 323.463 15.418L322.984 13.4762C320.89 13.9926 318.271 14 312.666 14V16ZM339.065 5.62054C334.372 8.08581 330.868 9.9262 328.257 11.2202C325.618 12.5278 323.982 13.2301 322.984 13.4762L323.463 15.418C324.707 15.1111 326.535 14.3056 329.145 13.0122C331.783 11.7052 335.312 9.8514 339.995 7.39111L339.065 5.62054ZM419.334 14C413.729 14 411.11 13.9926 409.016 13.4762L408.537 15.418C410.927 16.0074 413.851 16 419.334 16V14ZM392.005 7.39111C396.688 9.8514 400.217 11.7052 402.855 13.0122C405.465 14.3056 407.293 15.1111 408.537 15.418L409.016 13.4762C408.018 13.2301 406.382 12.5278 403.743 11.2202C401.132 9.9262 397.628 8.08581 392.935 5.62054L392.005 7.39111Z" fill="#EDEFF4" mask="url(#path-1-inside-1_53_1021)"/>
</svg> -->
<svg xmlns="http://www.w3.org/2000/svg" width="732" height="483" viewBox="0 0 732 483" fill="none">
  <mask id="path-1-inside-1_53_1021" fill="white">
    <path fill-rule="evenodd" clip-rule="evenodd" d="M392.47 6.50583C401.847 11.4314 406.535 13.8942 408.777 14.4471C411.018 15 413.79 15 419.334 15H696.036C712.983 15 721.456 15 726.728 20.2721C732 25.5442 732 34.0294 732 51V447C732 463.971 732 472.456 726.728 477.728C721.456 483 712.971 483 696 483H36C19.0294 483 10.5442 483 5.27208 477.728C0 472.456 0 463.971 0 447V51C0 34.0294 0 25.5442 5.27208 20.2721C10.5442 15 19.0173 15 35.9635 15H312.666C318.21 15 320.982 15 323.223 14.4471C325.465 13.8942 330.153 11.4314 339.53 6.50583C347.44 2.3509 356.445 0 366 0C375.555 0 384.56 2.3509 392.47 6.50583Z"/>
  </mask>
  <path fill-rule="evenodd" clip-rule="evenodd" d="M392.47 6.50583C401.847 11.4314 406.535 13.8942 408.777 14.4471C411.018 15 413.79 15 419.334 15H696.036C712.983 15 721.456 15 726.728 20.2721C732 25.5442 732 34.0294 732 51V447C732 463.971 732 472.456 726.728 477.728C721.456 483 712.971 483 696 483H36C19.0294 483 10.5442 483 5.27208 477.728C0 472.456 0 463.971 0 447V51C0 34.0294 0 25.5442 5.27208 20.2721C10.5442 15 19.0173 15 35.9635 15H312.666C318.21 15 320.982 15 323.223 14.4471C325.465 13.8942 330.153 11.4314 339.53 6.50583C347.44 2.3509 356.445 0 366 0C375.555 0 384.56 2.3509 392.47 6.50583Z" fill="white"/>
  <path d="M726.728 20.2721L726.021 20.9792L726.021 20.9792L726.728 20.2721ZM726.728 477.728L726.021 477.021L726.021 477.021L726.728 477.728ZM5.27208 477.728L5.97919 477.021L5.97918 477.021L5.27208 477.728ZM339.53 6.50583L339.065 5.62054L339.53 6.50583ZM323.223 14.4471L322.984 13.4762L323.223 14.4471ZM392.47 6.50583L392.005 7.39111L392.47 6.50583ZM408.777 14.4471L408.537 15.418L408.777 14.4471ZM419.334 16H696.036V14H419.334V16ZM696.036 16C704.538 16 710.813 16.0021 715.627 16.6501C720.411 17.2941 723.601 18.5597 726.021 20.9792L727.435 19.565C724.582 16.7124 720.9 15.3419 715.893 14.6679C710.916 13.9979 704.481 14 696.036 14V16ZM726.021 20.9792C728.44 23.3985 729.706 26.5916 730.35 31.3824C730.998 36.2019 731 42.4864 731 51H733C733 42.543 733.002 36.0996 732.332 31.1159C731.658 26.1033 730.288 22.4178 727.435 19.565L726.021 20.9792ZM731 51V447H733V51H731ZM731 447C731 455.514 730.998 461.798 730.35 466.618C729.706 471.408 728.44 474.602 726.021 477.021L727.435 478.435C730.288 475.582 731.658 471.897 732.332 466.884C733.002 461.9 733 455.457 733 447H731ZM726.021 477.021C723.602 479.44 720.408 480.706 715.618 481.35C710.798 481.998 704.514 482 696 482V484C704.457 484 710.9 484.002 715.884 483.332C720.897 482.658 724.582 481.288 727.435 478.435L726.021 477.021ZM696 482H36V484H696V482ZM36 482C27.4864 482 21.2019 481.998 16.3824 481.35C11.5916 480.706 8.39846 479.44 5.97919 477.021L4.56497 478.435C7.41778 481.288 11.1033 482.658 16.1159 483.332C21.0996 484.002 27.543 484 36 484V482ZM5.97918 477.021C3.55991 474.602 2.29419 471.408 1.65009 466.618C1.00212 461.798 1 455.514 1 447H-1C-1 455.457 -1.00212 461.9 -0.332073 466.884C0.341845 471.897 1.71216 475.582 4.56497 478.435L5.97918 477.021ZM1 447V51H-1V447H1ZM1 51C1 42.4864 1.00212 36.2019 1.65009 31.3824C2.29419 26.5916 3.55991 23.3985 5.97918 20.9792L4.56497 19.565C1.71216 22.4178 0.341845 26.1033 -0.332073 31.1159C-1.00212 36.0996 -1 42.543 -1 51H1ZM5.97918 20.9792C8.39867 18.5597 11.589 17.2941 16.3734 16.6501C21.1867 16.0021 27.4621 16 35.9635 16V14C27.5187 14 21.0844 13.9979 16.1066 14.6679C11.0998 15.3419 7.41757 16.7124 4.56497 19.565L5.97918 20.9792ZM35.9635 16H312.666V14H35.9635V16ZM339.995 7.39111C347.765 3.30973 356.611 1 366 1V-1C356.279 -1 347.115 1.39208 339.065 5.62054L339.995 7.39111ZM366 1C375.389 1 384.235 3.30973 392.005 7.39111L392.935 5.62054C384.885 1.39208 375.721 -1 366 -1V1ZM312.666 16C318.149 16 321.073 16.0074 323.463 15.418L322.984 13.4762C320.89 13.9926 318.271 14 312.666 14V16ZM339.065 5.62054C334.372 8.08581 330.868 9.9262 328.257 11.2202C325.618 12.5278 323.982 13.2301 322.984 13.4762L323.463 15.418C324.707 15.1111 326.535 14.3056 329.145 13.0122C331.783 11.7052 335.312 9.8514 339.995 7.39111L339.065 5.62054ZM419.334 14C413.729 14 411.11 13.9926 409.016 13.4762L408.537 15.418C410.927 16.0074 413.851 16 419.334 16V14ZM392.005 7.39111C396.688 9.8514 400.217 11.7052 402.855 13.0122C405.465 14.3056 407.293 15.1111 408.537 15.418L409.016 13.4762C408.018 13.2301 406.382 12.5278 403.743 11.2202C401.132 9.9262 397.628 8.08581 392.935 5.62054L392.005 7.39111Z" fill="#EDEFF4" mask="url(#path-1-inside-1_53_1021)"/>
</svg>