<svg xmlns="http://www.w3.org/2000/svg" width="41" height="42" viewBox="0 0 41 42" fill="none">
  <path d="M0 17.309V36.7979C0 38.7153 1.07478 40.3867 2.65296 41.2416L18.5647 29.6906L0 17.309Z" fill="#576DDB"/>
  <path d="M39.3036 15.8014L31.2443 11.1956C31.1352 11.8859 30.9731 12.5458 30.8016 13.1733C30.2777 15.0867 29.3697 17.6418 27.5396 17.7406C25.5444 17.8483 24.1899 14.7271 23.9432 14.1001C23.9162 14.0316 23.8987 13.9598 23.8897 13.8867L23.7841 12.9898C22.862 14.0021 21.5378 14.6424 20.064 14.6424C17.2853 14.6424 15.0246 12.382 15.0246 9.60377C15.0246 6.82507 17.2853 4.56473 20.064 4.56473C22.8128 4.56473 25.0505 6.77802 25.0984 9.51609L25.5757 13.5732C26.0585 14.742 26.9473 16.0328 27.434 16.0328C27.4387 16.0328 27.4434 16.0328 27.4481 16.0324C27.4814 16.0307 28.2684 15.9511 29.152 12.7225C29.4193 11.7439 29.6669 10.6888 29.6669 9.60377C29.6669 4.30812 25.3592 0 20.064 0C14.7684 0 10.4603 4.30812 10.4603 9.60377C10.4603 14.8994 14.7684 19.2075 20.064 19.2075C20.5362 19.2075 20.9194 19.5907 20.9194 20.0629C20.9194 20.5351 20.5362 20.9183 20.064 20.9183C14.3693 20.9183 9.64593 16.688 8.86454 11.2055L0.822266 15.8014L20.0615 28.633L39.3036 15.8014Z" fill="#576DDB"/>
  <path d="M20.551 30.3625L4.75 41.8335C4.85051 41.8395 4.95016 41.8489 5.05195 41.8489H35.0762C37.8613 41.8489 40.1268 39.583 40.1268 36.7979V17.309L20.551 30.3625Z" fill="#576DDB"/>
</svg>