<svg width="256" height="39" viewBox="0 0 256 39" fill="none" xmlns="http://www.w3.org/2000/svg">
<path d="M16 9.15C16 5.25668 16 3.31002 17.0253 1.96659C17.2957 1.61226 17.6123 1.29569 17.9666 1.02528C19.31 0 21.2567 0 25.15 0H185.867C187.886 0 188.896 0 189.794 0.36137C190.036 0.458901 190.271 0.575284 190.495 0.70945C191.326 1.20656 191.936 2.01085 193.156 3.61943L208.862 24.3194C213.229 30.0761 215.413 32.9544 214.746 35.3442C214.577 35.9518 214.294 36.5218 213.912 37.0242C212.411 39 208.798 39 201.572 39H25.15C21.2567 39 19.31 39 17.9666 37.9747C17.6123 37.7043 17.2957 37.3877 17.0253 37.0334C16 35.69 16 33.7433 16 29.85V9.15Z" fill="#21CE99" fill-opacity="0.25"/>
<path d="M34 9.15C34 5.25668 34 3.31002 35.0253 1.96659C35.2957 1.61226 35.6123 1.29569 35.9666 1.02528C37.31 0 39.2567 0 43.15 0H203.867C205.886 0 206.896 0 207.794 0.36137C208.036 0.458901 208.271 0.575284 208.495 0.70945C209.326 1.20656 209.936 2.01085 211.156 3.61943L226.862 24.3194C231.229 30.0761 233.413 32.9544 232.746 35.3442C232.577 35.9518 232.294 36.5218 231.912 37.0242C230.411 39 226.798 39 219.572 39H43.15C39.2567 39 37.31 39 35.9666 37.9747C35.6123 37.7043 35.2957 37.3877 35.0253 37.0334C34 35.69 34 33.7433 34 29.85V9.15Z" fill="#21CE99" fill-opacity="0.25"/>
<path d="M52 9.15C52 5.25668 52 3.31002 53.0253 1.96659C53.2957 1.61226 53.6123 1.29569 53.9666 1.02528C55.31 0 57.2567 0 61.15 0H221.867C223.886 0 224.896 0 225.794 0.36137C226.036 0.458901 226.271 0.575284 226.495 0.70945C227.326 1.20656 227.936 2.01085 229.156 3.61943L244.862 24.3194C249.229 30.0761 251.413 32.9544 250.746 35.3442C250.577 35.9518 250.294 36.5218 249.912 37.0242C248.411 39 244.798 39 237.572 39H61.15C57.2567 39 55.31 39 53.9666 37.9747C53.6123 37.7043 53.2957 37.3877 53.0253 37.0334C52 35.69 52 33.7433 52 29.85V9.15Z" fill="#21CE99" fill-opacity="0.25"/>
<path d="M0 9.15C0 5.25668 0 3.31002 1.02528 1.96659C1.29569 1.61226 1.61226 1.29569 1.96659 1.02528C3.31002 0 5.25668 0 9.15 0H169.867C171.886 0 172.896 0 173.794 0.36137C174.036 0.458901 174.271 0.575284 174.495 0.70945C175.326 1.20656 175.936 2.01085 177.156 3.61943L192.862 24.3194C197.229 30.0761 199.413 32.9544 198.746 35.3442C198.577 35.9518 198.294 36.5218 197.912 37.0242C196.411 39 192.798 39 185.572 39H9.14999C5.25668 39 3.31002 39 1.96659 37.9747C1.61226 37.7043 1.29569 37.3877 1.02528 37.0334C0 35.69 0 33.7433 0 29.85V9.15Z" fill="#21CE99"/>
</svg>
