<svg xmlns="http://www.w3.org/2000/svg" width="47" height="48" viewBox="0 0 47 48" fill="none">
  <path fill-rule="evenodd" clip-rule="evenodd" d="M31.2428 14.59L33.9603 20.2211L14.6733 18.9993L10.5575 25.1171C10.4485 25.2791 10.4345 25.471 10.5185 25.6452L12.4261 29.5978C12.6021 29.964 13.1071 29.996 13.3361 29.6556L17.1097 24.0465L36.3961 25.269L39.1136 30.9002C39.2816 31.2486 39.253 31.6333 39.0355 31.9565L28.833 47.1215C28.615 47.4455 28.27 47.6162 27.884 47.5919L9.8107 46.4467C9.42471 46.4223 9.10772 46.2091 8.93973 45.8607L1.06841 29.5513C0.900424 29.2029 0.929007 28.8182 1.14648 28.4949L11.349 13.3299C11.567 13.0059 11.912 12.8352 12.298 12.8596L30.3713 14.0048C30.7573 14.0291 31.0743 14.2424 31.2428 14.59ZM44.6615 13.957C45.4233 13.8031 46.1589 14.2979 46.3034 15.0616C46.4479 15.8253 45.947 16.5699 45.1851 16.7238L39.4383 17.8848C38.6765 18.0387 37.9409 17.5438 37.7964 16.7801C37.6519 16.0165 38.1528 15.2718 38.9147 15.1179L44.6615 13.957ZM23.1414 1.89359C22.9969 1.12992 23.4979 0.38526 24.2597 0.231358C25.0216 0.0774549 25.7571 0.572314 25.9017 1.33599L26.9919 7.09663C27.1364 7.86031 26.6354 8.60497 25.8736 8.75887C25.1117 8.91277 24.3762 8.41791 24.2316 7.65423L23.1414 1.89359ZM36.245 3.70759C36.6815 3.05874 37.5559 2.88211 38.1968 3.3133C38.8377 3.74449 39.0036 4.62096 38.5671 5.26981L35.274 10.1646C34.8375 10.8135 33.9631 10.9901 33.3222 10.5589C32.6813 10.1277 32.5154 9.25124 32.9519 8.60239L36.245 3.70759Z" fill="white"/>
</svg>