<svg width="18" height="15" viewBox="0 0 18 15" fill="none" xmlns="http://www.w3.org/2000/svg">
<path d="M16.5952 5.89381H5.47804C4.94911 5.89381 4.68464 5.25154 5.06245 4.87373L7.93379 2.00238C8.38716 1.54901 8.38716 0.793398 7.93379 0.340028C7.48042 -0.113343 6.72481 -0.113343 6.27144 0.340028L0.339844 6.23384C-0.113526 6.68721 -0.113526 7.44283 0.339844 7.8962L6.19587 13.7522C6.42256 13.9789 6.72481 14.0923 7.02705 14.0923C7.3293 14.0923 7.63155 13.9789 7.85823 13.7522C8.3116 13.2989 8.3116 12.5432 7.85823 12.0899L5.06245 9.25631C4.68464 8.8785 4.94911 8.23622 5.47804 8.23622H16.6707C17.3508 8.23622 17.9175 7.63173 17.8419 6.95167C17.7664 6.34718 17.1996 5.89381 16.5952 5.89381Z" fill="#1B2764"/>
</svg>
